<svg width="72" height="159" viewBox="0 0 72 159" fill="none" xmlns="http://www.w3.org/2000/svg">
<mask id="mask0_174_3103" style="mask-type:luminance" maskUnits="userSpaceOnUse" x="-1" y="-1" width="74" height="161">
<path d="M-0.624512 -0.249512H72.6238V159.898H-0.624512V-0.249512Z" fill="white"/>
</mask>
<g mask="url(#mask0_174_3103)">
<path d="M26.8045 36.7992C26.7405 36.7992 26.6797 36.7969 26.6168 36.7912C25.7542 36.7521 25.0727 36.3918 24.707 35.7768C24.3273 35.1457 24.3555 34.3368 24.7917 33.498C25.0825 32.9541 25.7422 31.9811 26.9195 31.5347C27.639 31.2123 28.4018 31.0378 29.1006 31.0378C30.2888 31.0378 31.1666 31.5462 31.4455 32.3964C31.9012 33.763 30.8552 35.4509 29.0626 36.2335C28.2282 36.5376 27.5098 36.7992 26.8045 36.7992ZM29.1006 31.9042C28.5146 31.9042 27.869 32.0545 27.2331 32.3379C26.2913 32.6959 25.765 33.4762 25.5328 33.9099C25.2474 34.4595 25.2073 34.9644 25.4243 35.3236C25.7162 35.8124 26.326 35.9111 26.6635 35.9271L26.8045 35.9329C27.3655 35.9329 27.9873 35.708 28.7089 35.444C30.0739 34.8508 30.9507 33.5852 30.6468 32.6752C30.4884 32.191 29.9111 31.9042 29.1006 31.9042Z" fill="#769687"/>
</g>
<mask id="mask1_174_3103" style="mask-type:luminance" maskUnits="userSpaceOnUse" x="-1" y="-1" width="74" height="161">
<path d="M-0.624512 -0.249512H72.6238V159.898H-0.624512V-0.249512Z" fill="white"/>
</mask>
<g mask="url(#mask1_174_3103)">
<path d="M20.3699 41.2193C19.759 41.2193 19.2424 41.0139 18.8757 40.6215C18.3711 40.0856 18.2149 39.24 18.4601 38.3622C18.7346 37.5325 19.326 36.7224 20.129 36.0558C21.0915 35.2881 21.9357 34.9129 22.7169 34.9026C23.6794 34.9026 24.3793 35.2365 24.7569 35.8424C25.1323 36.439 25.1486 37.2399 24.7992 38.0328C24.4086 38.9267 23.8964 39.6289 23.2801 40.12C22.5835 40.6949 21.7447 41.0713 20.9222 41.1677C20.7399 41.202 20.555 41.2192 20.3699 41.2193ZM22.7885 35.7689C22.1462 35.777 21.4474 36.1005 20.652 36.7339C19.9868 37.2859 19.479 37.9755 19.2641 38.6203C19.109 39.1768 19.1893 39.7081 19.4823 40.0214C19.7666 40.3231 20.244 40.4161 20.8006 40.3117C21.5158 40.2165 22.1925 39.9157 22.7571 39.4419C23.2703 39.0323 23.6957 38.4402 24.031 37.6771C24.1655 37.3707 24.3478 36.7856 24.0483 36.3105C23.8292 35.9605 23.3832 35.7689 22.7885 35.7689Z" fill="#769687"/>
</g>
<mask id="mask2_174_3103" style="mask-type:luminance" maskUnits="userSpaceOnUse" x="-1" y="-1" width="74" height="161">
<path d="M-0.624512 -0.249512H72.6238V159.898H-0.624512V-0.249512Z" fill="white"/>
</mask>
<g mask="url(#mask2_174_3103)">
<path d="M15.3124 46.9599C14.8784 46.9599 14.4769 46.8395 14.1492 46.6123C13.739 46.3265 13.471 45.8745 13.3788 45.3007C13.2138 44.2806 13.611 42.9989 14.4422 41.8756C15.3254 40.8039 16.519 40.1487 17.5727 40.1487C18.1467 40.1487 18.6306 40.3426 18.9724 40.7063C19.9327 41.7115 19.6777 43.5509 18.3485 45.1779C17.5455 46.2692 16.3769 46.9599 15.3124 46.9599ZM17.5727 41.015C16.7729 41.015 15.8018 41.5646 15.0997 42.4172C14.4302 43.3225 14.0852 44.3793 14.2099 45.1584C14.2653 45.4969 14.4042 45.7436 14.6223 45.894C15.3732 46.4264 16.8185 45.8205 17.6898 44.6387C18.7098 43.3902 18.9952 41.9662 18.368 41.3099C18.1391 41.0666 17.8081 41.015 17.5727 41.015Z" fill="#769687"/>
</g>
<mask id="mask3_174_3103" style="mask-type:luminance" maskUnits="userSpaceOnUse" x="-1" y="-1" width="74" height="161">
<path d="M-0.624512 -0.249512H72.6238V159.898H-0.624512V-0.249512Z" fill="white"/>
</mask>
<g mask="url(#mask3_174_3103)">
<path d="M11.3735 53.5738C11.0979 53.5738 10.832 53.5141 10.5814 53.3959C9.9249 53.0838 9.50931 52.3965 9.41165 51.4613C9.29771 50.5342 9.53643 49.5095 10.0692 48.6558C11.1597 46.7625 13.0641 45.8308 14.2078 46.642C15.3677 47.4613 15.4817 49.4717 14.4639 51.2204C13.5426 52.7189 12.4184 53.5738 11.3735 53.5738ZM13.203 47.1963C12.4174 47.1963 11.4462 47.9651 10.7875 49.1102C10.3524 49.8079 10.1582 50.6225 10.2483 51.3603C10.3155 51.9892 10.5586 52.4309 10.933 52.6088C11.7272 52.992 12.8536 52.2186 13.7466 50.7671C14.504 49.4648 14.4986 47.8974 13.7303 47.3535C13.5732 47.2468 13.3896 47.192 13.203 47.1963Z" fill="#769687"/>
</g>
<mask id="mask4_174_3103" style="mask-type:luminance" maskUnits="userSpaceOnUse" x="-1" y="-1" width="74" height="161">
<path d="M-0.624512 -0.249512H72.6238V159.898H-0.624512V-0.249512Z" fill="white"/>
</mask>
<g mask="url(#mask4_174_3103)">
<path d="M8.55874 60.7327C8.39597 60.7327 8.23647 60.7109 8.08455 60.6673C7.5789 60.5273 7.16873 60.175 6.89746 59.6472C6.43629 58.7487 6.42653 57.4303 6.8725 56.1211C7.36947 54.4699 8.65531 53.2605 9.92487 53.2605C10.1907 53.2605 10.4403 53.3167 10.6692 53.4269C11.8683 53.9868 12.2589 55.7688 11.6382 57.8572C11.0653 59.5302 9.77296 60.7327 8.55874 60.7327ZM9.92487 54.1268C9.15229 54.1268 8.09974 54.9736 7.67222 56.3919C7.30328 57.4774 7.29352 58.5629 7.64292 59.2433C7.8046 59.5554 8.02704 59.7562 8.30483 59.8331C9.06656 60.0408 10.2906 59.1848 10.8374 57.5864C11.316 55.9765 11.1033 54.5824 10.3166 54.2117C10.1931 54.1545 10.0597 54.1256 9.92487 54.1268Z" fill="#769687"/>
</g>
<mask id="mask5_174_3103" style="mask-type:luminance" maskUnits="userSpaceOnUse" x="-1" y="-1" width="74" height="161">
<path d="M-0.624512 -0.249512H72.6238V159.898H-0.624512V-0.249512Z" fill="white"/>
</mask>
<g mask="url(#mask5_174_3103)">
<path d="M6.97229 68.2749C6.90067 68.2749 6.83014 68.2714 6.75852 68.2611C6.25938 68.2037 5.80907 67.9226 5.45967 67.4487C4.8455 66.6191 4.60461 65.3145 4.81403 63.957C5.32511 61.7643 6.86161 60.3013 8.19953 60.688C9.56024 61.0781 10.2525 62.9507 9.77292 64.9542C9.50056 66.8314 8.29285 68.2749 6.97229 68.2749ZM7.73403 61.4889C7.0081 61.4889 6.02609 62.4745 5.63979 64.1257C5.47486 65.2054 5.66041 66.2898 6.13026 66.9243C6.27566 67.1194 6.51872 67.3627 6.8551 67.4005C7.77852 67.5394 8.7258 66.2955 8.94716 64.7866C9.31284 63.2536 8.86253 61.7757 7.97275 61.5233C7.89509 61.5 7.81473 61.4885 7.73403 61.4889Z" fill="#769687"/>
</g>
<mask id="mask6_174_3103" style="mask-type:luminance" maskUnits="userSpaceOnUse" x="-1" y="-1" width="74" height="161">
<path d="M-0.624512 -0.249512H72.6238V159.898H-0.624512V-0.249512Z" fill="white"/>
</mask>
<g mask="url(#mask6_174_3103)">
<path d="M6.46549 75.9685C5.93162 75.9685 5.4021 75.7057 4.97349 75.2284C4.2812 74.4573 3.92854 73.2433 4.02945 71.9811C4.11843 69.747 5.37172 68.0741 6.83008 68.2611C8.17777 68.4275 9.16521 70.1659 9.07949 72.2164C8.89177 74.4183 7.86852 75.9192 6.53168 75.9685H6.46549ZM6.60764 69.1114C5.71352 69.1114 4.93442 70.4229 4.8704 72.0351C4.78902 73.0609 5.06572 74.0546 5.59307 74.6421C5.86001 74.9404 6.17035 75.1045 6.46549 75.1045V75.5371L6.50021 75.1022C7.36612 75.0712 8.09639 73.8331 8.23854 72.1613C8.30256 70.6306 7.61135 69.2307 6.727 69.1194C6.68577 69.1159 6.6467 69.1114 6.60764 69.1114Z" fill="#769687"/>
</g>
<mask id="mask7_174_3103" style="mask-type:luminance" maskUnits="userSpaceOnUse" x="-1" y="-1" width="74" height="161">
<path d="M-0.624512 -0.249512H72.6238V159.898H-0.624512V-0.249512Z" fill="white"/>
</mask>
<g mask="url(#mask7_174_3103)">
<path d="M7.11006 83.66C5.81012 83.66 4.661 82.1671 4.37562 80.112C4.19658 78.8349 4.49607 77.5785 5.17425 76.7535C5.58659 76.2532 6.10526 75.9686 6.63588 75.9548C8.02154 75.9548 9.0806 77.3432 9.39853 79.4913C9.68174 81.528 8.82343 83.3421 7.44427 83.6267C7.33407 83.6486 7.22219 83.6597 7.11006 83.66ZM6.70207 76.8189C6.37111 76.8292 6.07271 77.0036 5.81771 77.3134C5.30012 77.9422 5.06683 78.9669 5.21006 79.9893C5.43901 81.6393 6.38522 82.9497 7.27717 82.7764C8.18756 82.5905 8.77677 81.1424 8.56409 79.6175C8.32103 77.972 7.55495 76.8189 6.70207 76.8189Z" fill="#769687"/>
</g>
<mask id="mask8_174_3103" style="mask-type:luminance" maskUnits="userSpaceOnUse" x="-1" y="-1" width="74" height="161">
<path d="M-0.624512 -0.249512H72.6238V159.898H-0.624512V-0.249512Z" fill="white"/>
</mask>
<g mask="url(#mask8_174_3103)">
<path d="M9.05228 91.1081C7.78489 91.1081 6.47734 89.8012 6.00967 88.0663C5.66895 86.6939 5.78722 85.3606 6.32434 84.4931C6.62817 84.0009 7.04919 83.6899 7.54182 83.5935C8.9123 83.3158 10.3945 84.6801 10.8676 86.6285C11.4243 88.6756 10.9393 90.4713 9.68489 90.9831C9.48366 91.0677 9.26881 91.1101 9.05228 91.1081ZM7.90316 84.4231C7.83541 84.4232 7.76783 84.4301 7.70133 84.4438C7.43765 84.4943 7.21521 84.6687 7.03617 84.9578C6.62708 85.6176 6.54679 86.7237 6.82349 87.8448C7.28248 89.5442 8.61824 90.5011 9.37021 90.181C10.1992 89.8425 10.4846 88.4403 10.0527 86.85C9.7207 85.4834 8.77775 84.4231 7.90316 84.4231Z" fill="#769687"/>
</g>
<mask id="mask9_174_3103" style="mask-type:luminance" maskUnits="userSpaceOnUse" x="-1" y="-1" width="74" height="161">
<path d="M-0.624512 -0.249512H72.6238V159.898H-0.624512V-0.249512Z" fill="white"/>
</mask>
<g mask="url(#mask9_174_3103)">
<path d="M12.173 98.0961C11.7781 98.0961 11.3657 97.9847 10.9447 97.7702C10.2286 97.3663 9.5699 96.6124 9.0751 95.6394C8.5868 94.6571 8.37087 93.6658 8.46528 92.8488C8.62587 91.8918 9.08161 91.224 9.74894 90.9463C10.3859 90.6801 11.1628 90.8143 11.8562 91.3204C12.5832 91.7895 13.1752 92.4596 13.5685 93.2584C13.9659 94.0493 14.1548 94.9387 14.1154 95.8333C14.0991 96.726 13.7595 97.4317 13.1594 97.8149C12.8616 98.0035 12.5201 98.1008 12.173 98.0961ZM10.4401 91.6749C10.3124 91.6744 10.1857 91.6997 10.0669 91.7495C9.67733 91.9102 9.40497 92.345 9.29863 92.9738C9.22701 93.6003 9.41256 94.4139 9.82381 95.2446C10.234 96.0513 10.7863 96.6916 11.3364 97.0025C11.8453 97.263 12.3662 97.3032 12.7145 97.0794C13.1854 96.7788 13.2668 96.1523 13.2733 95.8057C13.3078 95.0585 13.1511 94.3153 12.8198 93.6543C12.4916 92.9893 11.9978 92.4319 11.3918 92.0421C11.0532 91.7954 10.7331 91.6749 10.4401 91.6749Z" fill="#769687"/>
</g>
<mask id="mask10_174_3103" style="mask-type:luminance" maskUnits="userSpaceOnUse" x="-1" y="-1" width="74" height="161">
<path d="M-0.624512 -0.249512H72.6238V159.898H-0.624512V-0.249512Z" fill="white"/>
</mask>
<g mask="url(#mask10_174_3103)">
<path d="M16.4625 104.392C15.3535 104.392 14.1263 103.645 13.3352 102.487C12.555 101.456 12.1905 100.21 12.3717 99.1689C12.4791 98.5458 12.7873 98.0421 13.2376 97.753C14.3476 97.0347 16.1521 97.7472 17.3772 99.3686C18.599 101.156 18.7466 102.976 17.7581 103.911C17.4336 104.225 16.9844 104.392 16.4625 104.392ZM14.2749 98.3221C14.0525 98.3221 13.8539 98.3783 13.6868 98.4873C13.37 98.6904 13.2473 99.0519 13.2007 99.3215C13.064 100.112 13.3743 101.126 14.0123 101.973C14.7502 103.051 15.7724 103.526 16.4625 103.526C16.6741 103.526 16.9714 103.482 17.183 103.277C17.8405 102.656 17.6398 101.262 16.699 99.8826C15.9883 98.9417 15.0323 98.3221 14.2749 98.3221Z" fill="#769687"/>
</g>
<mask id="mask11_174_3103" style="mask-type:luminance" maskUnits="userSpaceOnUse" x="-1" y="-1" width="74" height="161">
<path d="M-0.624512 -0.249512H72.6238V159.898H-0.624512V-0.249512Z" fill="white"/>
</mask>
<g mask="url(#mask11_174_3103)">
<path d="M21.7187 109.743C20.7617 109.743 19.7113 109.292 18.8335 108.504C17.8222 107.578 17.2199 106.392 17.2178 105.331C17.2178 104.717 17.4196 104.207 17.8026 103.855C18.7847 102.934 20.7053 103.264 22.156 104.585C23.6513 105.94 24.2123 107.745 23.4885 108.879C23.1359 109.436 22.5065 109.743 21.7187 109.743ZM19.2827 104.175C18.9029 104.175 18.5958 104.284 18.368 104.498C18.113 104.732 18.0609 105.079 18.0609 105.331C18.062 106.137 18.572 107.105 19.3912 107.856C20.5751 108.914 22.2971 109.169 22.7832 108.403C23.2672 107.646 22.7572 106.284 21.5972 105.233C20.8691 104.571 20.0032 104.175 19.2827 104.175Z" fill="#769687"/>
</g>
<mask id="mask12_174_3103" style="mask-type:luminance" maskUnits="userSpaceOnUse" x="-1" y="-1" width="74" height="161">
<path d="M-0.624512 -0.249512H72.6238V159.898H-0.624512V-0.249512Z" fill="white"/>
</mask>
<g mask="url(#mask12_174_3103)">
<path d="M27.8126 113.557C27.1268 113.557 26.4019 113.385 25.7205 113.057C24.4726 112.43 23.572 111.443 23.3062 110.414C23.151 109.813 23.2269 109.257 23.5275 108.803C23.9464 108.162 24.7157 107.808 25.6955 107.808C26.3976 107.808 27.168 108.002 27.8646 108.35C29.654 109.219 30.6653 110.736 30.317 112.036C30.0739 112.959 29.0897 113.557 27.8126 113.557ZM25.6955 108.674C25.0163 108.674 24.4802 108.897 24.2263 109.287C24.0234 109.591 24.057 109.948 24.12 110.191C24.3218 110.97 25.0738 111.769 26.084 112.275C27.5207 112.966 29.2742 112.677 29.5042 111.808C29.7375 110.935 28.8944 109.809 27.5001 109.131C26.9369 108.843 26.3212 108.687 25.6955 108.674Z" fill="#769687"/>
</g>
<mask id="mask13_174_3103" style="mask-type:luminance" maskUnits="userSpaceOnUse" x="-1" y="-1" width="74" height="161">
<path d="M-0.624512 -0.249512H72.6238V159.898H-0.624512V-0.249512Z" fill="white"/>
</mask>
<g mask="url(#mask13_174_3103)">
<path d="M34.3808 115.299C34.1664 115.299 33.9522 115.284 33.7395 115.255C32.42 115.126 31.2232 114.482 30.6307 113.577C30.2856 113.05 30.1782 112.476 30.329 111.961C30.685 110.671 32.2855 109.911 34.2658 110.089C36.3166 110.374 37.6849 111.425 37.7706 112.771C37.8075 113.533 37.3865 114.217 36.5857 114.701C35.9867 115.085 35.2 115.299 34.3808 115.299ZM33.7026 110.93C32.3582 110.93 31.3512 111.431 31.1374 112.204C31.0376 112.546 31.1874 112.876 31.3306 113.095C31.6876 113.639 32.5329 114.266 33.835 114.394C34.7768 114.522 35.5483 114.345 36.1495 113.959C36.4577 113.774 36.9568 113.385 36.9297 112.82C36.8635 111.784 35.4973 111.133 34.1724 110.95C34.0161 110.937 33.8594 110.931 33.7026 110.93Z" fill="#769687"/>
</g>
<mask id="mask14_174_3103" style="mask-type:luminance" maskUnits="userSpaceOnUse" x="-1" y="-1" width="74" height="161">
<path d="M-0.624512 -0.249512H72.6238V159.898H-0.624512V-0.249512Z" fill="white"/>
</mask>
<g mask="url(#mask14_174_3103)">
<path d="M40.8542 114.782C39.1485 114.782 37.8138 113.864 37.7519 112.65C37.676 111.289 38.9716 110.028 40.902 109.581C41.3263 109.478 41.7581 109.425 42.1824 109.425C43.5876 109.425 44.6879 110.012 45.0525 110.958C45.2489 111.462 45.2033 112.043 44.9244 112.597C44.4416 113.554 43.3608 114.32 42.0348 114.643C41.6472 114.735 41.2514 114.781 40.8542 114.782ZM42.1824 110.291C41.8232 110.291 41.4565 110.336 41.093 110.425C39.6151 110.767 38.543 111.702 38.5929 112.603C38.6406 113.534 40.2553 114.165 41.8428 113.799C42.9138 113.538 43.809 112.923 44.1757 112.197C44.2929 111.968 44.4036 111.62 44.269 111.278C44.039 110.679 43.2198 110.291 42.1824 110.291Z" fill="#769687"/>
</g>
<mask id="mask15_174_3103" style="mask-type:luminance" maskUnits="userSpaceOnUse" x="-1" y="-1" width="74" height="161">
<path d="M-0.624512 -0.249512H72.6238V159.898H-0.624512V-0.249512Z" fill="white"/>
</mask>
<g mask="url(#mask15_174_3103)">
<path d="M47.2717 112.179C46.1573 112.179 45.3131 111.692 45.0115 110.875C44.5308 109.59 45.4433 107.947 47.1871 106.971C48.8939 106.016 50.808 106.073 51.5763 107.16C51.8855 107.59 51.9843 108.168 51.853 108.784C51.6273 109.837 50.7983 110.858 49.6372 111.517C48.8592 111.949 48.0421 112.179 47.2717 112.179ZM49.6199 107.138C48.9938 107.138 48.2733 107.347 47.5907 107.731C46.268 108.47 45.4813 109.716 45.8003 110.566C46.115 111.425 47.8132 111.55 49.2325 110.757C50.1678 110.227 50.858 109.399 51.0294 108.597C51.0847 108.338 51.1064 107.966 50.8959 107.671C50.5834 107.229 50.0289 107.138 49.6199 107.138Z" fill="#769687"/>
</g>
<mask id="mask16_174_3103" style="mask-type:luminance" maskUnits="userSpaceOnUse" x="-1" y="-1" width="74" height="161">
<path d="M-0.624512 -0.249512H72.6238V159.898H-0.624512V-0.249512Z" fill="white"/>
</mask>
<g mask="url(#mask16_174_3103)">
<path d="M53.2049 107.884C52.4682 107.884 51.8714 107.607 51.5241 107.1C50.7288 105.971 51.2192 104.175 52.7177 102.737C54.2564 101.363 56.087 101.005 57.0722 101.911C57.4629 102.265 57.6788 102.811 57.6777 103.45C57.6777 104.53 57.0972 105.698 56.1239 106.578C55.2536 107.408 54.187 107.884 53.2049 107.884ZM55.6659 102.257C54.9596 102.257 54.0698 102.679 53.282 103.38C52.1329 104.484 51.6771 105.841 52.2099 106.599C52.3976 106.871 52.7492 107.02 53.2049 107.02C53.9656 107.02 54.8456 106.614 55.5596 105.935C56.3485 105.222 56.8346 104.273 56.8357 103.45C56.8357 103.177 56.7803 102.801 56.5123 102.557C56.2953 102.358 56.011 102.257 55.6659 102.257Z" fill="#769687"/>
</g>
<mask id="mask17_174_3103" style="mask-type:luminance" maskUnits="userSpaceOnUse" x="-1" y="-1" width="74" height="161">
<path d="M-0.624512 -0.249512H72.6238V159.898H-0.624512V-0.249512Z" fill="white"/>
</mask>
<g mask="url(#mask17_174_3103)">
<path d="M58.2636 102.323C57.7634 102.323 57.325 102.161 56.9995 101.856C55.9893 100.927 56.1162 99.0622 57.312 97.3261C58.5729 95.6382 60.2971 94.9371 61.4386 95.637C61.8857 95.9101 62.1993 96.4035 62.3187 97.0266C62.5183 98.0811 62.1732 99.3387 61.3931 100.393C60.5803 101.561 59.3498 102.323 58.2636 102.323ZM60.423 96.2222C59.6797 96.2222 58.7248 96.8568 57.9902 97.8378C57.0744 99.1689 56.891 100.595 57.5648 101.214C57.7808 101.416 58.0629 101.457 58.2636 101.457C59.0861 101.457 60.0486 100.838 60.7149 99.8803C61.3486 99.022 61.6437 97.9962 61.4907 97.1953C61.4397 96.9256 61.3139 96.5676 61.0068 96.3806C60.829 96.2737 60.6275 96.219 60.423 96.2222Z" fill="#769687"/>
</g>
<mask id="mask18_174_3103" style="mask-type:luminance" maskUnits="userSpaceOnUse" x="-1" y="-1" width="74" height="161">
<path d="M-0.624512 -0.249512H72.6238V159.898H-0.624512V-0.249512Z" fill="white"/>
</mask>
<g mask="url(#mask18_174_3103)">
<path d="M62.284 95.8608C61.9454 95.8608 61.6351 95.7736 61.3638 95.6038C60.1909 94.8774 59.9814 92.9738 60.8669 91.0725C61.7729 89.2102 63.3832 88.1717 64.6332 88.6582C65.128 88.8499 65.5089 89.2607 65.7346 89.8504C66.1144 90.8372 65.9961 92.1408 65.4178 93.341C64.7103 94.8464 63.4505 95.8608 62.284 95.8608ZM63.9594 89.3972C63.1727 89.3972 62.2124 90.244 61.6243 91.4546C60.945 92.9118 61.0188 94.3794 61.8011 94.8625C62.4858 95.2985 63.8726 94.6388 64.6604 92.9612C65.128 91.9881 65.2387 90.9187 64.9512 90.1694C64.8557 89.9216 64.6723 89.5992 64.3348 89.4683C64.2148 89.4209 64.0876 89.3968 63.9594 89.3972Z" fill="#769687"/>
</g>
<mask id="mask19_174_3103" style="mask-type:luminance" maskUnits="userSpaceOnUse" x="-1" y="-1" width="74" height="161">
<path d="M-0.624512 -0.249512H72.6238V159.898H-0.624512V-0.249512Z" fill="white"/>
</mask>
<g mask="url(#mask19_174_3103)">
<path d="M65.192 88.7581C64.9706 88.7581 64.7558 88.7168 64.5518 88.6353C63.2703 88.127 62.7321 86.2027 63.3278 84.2532C63.8378 82.3152 65.2972 80.944 66.6352 81.2228C67.1462 81.3261 67.5824 81.6542 67.8939 82.1683C68.4266 83.0484 68.5362 84.3656 68.1879 85.6921C67.6356 87.5039 66.4073 88.7581 65.192 88.7581ZM66.2825 82.0535C65.4394 82.0535 64.4964 83.1253 64.1373 84.4942C63.6848 85.9755 64.0168 87.4947 64.8567 87.8287C65.7215 88.1809 66.8945 87.0392 67.3784 85.4511C67.6584 84.3829 67.5835 83.2962 67.1788 82.6273C66.99 82.3163 66.7523 82.1293 66.4724 82.0731C66.4099 82.0597 66.3463 82.0532 66.2825 82.0535Z" fill="#769687"/>
</g>
<mask id="mask20_174_3103" style="mask-type:luminance" maskUnits="userSpaceOnUse" x="-1" y="-1" width="74" height="161">
<path d="M-0.624512 -0.249512H72.6238V159.898H-0.624512V-0.249512Z" fill="white"/>
</mask>
<g mask="url(#mask20_174_3103)">
<path d="M66.8859 81.2514C66.7687 81.2514 66.6505 81.2399 66.5365 81.2135C65.2029 80.937 64.3945 79.2124 64.617 77.1137C64.8687 75.0116 65.9896 73.5486 67.3427 73.5486C67.8842 73.5543 68.3899 73.8171 68.7924 74.2898C69.4739 75.0908 69.7983 76.3965 69.6421 77.6989C69.4316 79.6886 68.2195 81.2514 66.8859 81.2514ZM67.3612 74.4149C66.4432 74.4149 65.6478 75.591 65.4547 77.2147C65.2865 78.797 65.8366 80.1854 66.7058 80.3656C67.5326 80.5549 68.6134 79.3948 68.8044 77.5991C68.9335 76.5262 68.685 75.4809 68.1577 74.8613C67.9862 74.6593 67.7084 74.4183 67.3612 74.4149Z" fill="#769687"/>
</g>
<mask id="mask21_174_3103" style="mask-type:luminance" maskUnits="userSpaceOnUse" x="-1" y="-1" width="74" height="161">
<path d="M-0.624512 -0.249512H72.6238V159.898H-0.624512V-0.249512Z" fill="white"/>
</mask>
<g mask="url(#mask21_174_3103)">
<path d="M67.3372 73.5578H67.2916C65.9168 73.5303 64.784 71.9537 64.6603 69.8929C64.4856 67.8779 65.3884 66.104 66.7165 65.8665C68.176 65.6094 69.5063 67.2606 69.7038 69.4981C69.7852 70.8682 69.4184 72.1304 68.7229 72.8877C68.3225 73.326 67.8429 73.5578 67.3372 73.5578ZM67.0171 66.7076C66.9651 66.707 66.9131 66.7117 66.8619 66.7213C65.9917 66.8751 65.3688 68.2991 65.5001 69.8275C65.5967 71.4201 66.3921 72.6743 67.3122 72.6915L67.3372 73.1252V72.6915C67.6736 72.6915 67.9438 72.4758 68.1098 72.2945C68.6393 71.7162 68.929 70.6685 68.8639 69.5624C68.7088 67.8022 67.7832 66.7076 67.0171 66.7076Z" fill="#769687"/>
</g>
<mask id="mask22_174_3103" style="mask-type:luminance" maskUnits="userSpaceOnUse" x="-1" y="-1" width="74" height="161">
<path d="M-0.624512 -0.249512H72.6238V159.898H-0.624512V-0.249512Z" fill="white"/>
</mask>
<g mask="url(#mask22_174_3103)">
<path d="M66.314 65.9205C65.0715 65.9205 63.8964 64.6628 63.3885 62.7914C62.8916 60.6858 63.4439 58.8981 64.7265 58.4311C64.9055 58.3634 65.0987 58.3301 65.2961 58.3301C66.5733 58.3301 67.8537 59.6783 68.278 61.4672C68.623 62.7409 68.4983 64.0432 67.9394 64.9371C67.6085 65.4695 67.1386 65.8103 66.6189 65.8952C66.518 65.9122 66.4161 65.9207 66.314 65.9205ZM65.2961 59.1964C65.199 59.1954 65.1025 59.2121 65.0108 59.2457C64.1741 59.5498 63.8291 60.9807 64.2045 62.5722C64.618 64.1006 65.5761 65.1849 66.4821 65.0404C66.8446 64.9807 67.0876 64.6984 67.2298 64.4712C67.6541 63.7908 67.743 62.7225 67.462 61.6864C67.0963 60.1419 66.0546 59.1964 65.2961 59.1964Z" fill="#769687"/>
</g>
<mask id="mask23_174_3103" style="mask-type:luminance" maskUnits="userSpaceOnUse" x="-1" y="-1" width="74" height="161">
<path d="M-0.624512 -0.249512H72.6238V159.898H-0.624512V-0.249512Z" fill="white"/>
</mask>
<g mask="url(#mask23_174_3103)">
<path d="M64.0125 58.5779C62.8504 58.5779 61.6155 57.5154 60.9406 55.9353C60.1094 54.0133 60.397 52.0673 61.6101 51.4086C61.8673 51.2687 62.1527 51.1975 62.4576 51.1975C63.6306 51.1975 64.8795 52.2555 65.5653 53.8321C66.0948 55.077 66.1653 56.3932 65.7552 57.3513C65.5175 57.9089 65.1345 58.2956 64.6495 58.4677C64.4443 58.541 64.2291 58.5782 64.0125 58.5779ZM62.4576 52.0638C62.3002 52.0618 62.1447 52.0995 62.004 52.174C61.2141 52.6031 61.0838 54.1315 61.7121 55.5854C62.3274 57.0277 63.5079 57.9663 64.3706 57.6508C64.6994 57.5337 64.8849 57.2331 64.9837 57.0013C65.2962 56.2715 65.2224 55.1918 64.7938 54.182C64.1894 52.7913 63.1607 52.0638 62.4576 52.0638Z" fill="#769687"/>
</g>
<mask id="mask24_174_3103" style="mask-type:luminance" maskUnits="userSpaceOnUse" x="-1" y="-1" width="74" height="161">
<path d="M-0.624512 -0.249512H72.6238V159.898H-0.624512V-0.249512Z" fill="white"/>
</mask>
<g mask="url(#mask24_174_3103)">
<path d="M60.651 51.6817C59.5604 51.6817 58.3343 50.8039 57.5259 49.443C56.4679 47.6013 56.5319 45.6254 57.6735 44.8383C57.9697 44.6329 58.318 44.5308 58.7065 44.5308C59.8415 44.5308 61.0785 45.4063 61.8576 46.7637C62.5293 47.8928 62.7691 49.1665 62.4967 50.1682C62.3328 50.7683 61.9986 51.2169 61.5299 51.4659C61.2575 51.6114 60.956 51.6853 60.651 51.6817ZM58.7065 45.3948C58.5082 45.3895 58.3128 45.4458 58.1444 45.5566C57.3902 46.0764 57.438 47.5864 58.2496 48.9978C59.0407 50.3288 60.3558 51.1297 61.1403 50.6983C61.4648 50.5262 61.6156 50.1888 61.684 49.9352C61.8923 49.1722 61.6807 48.128 61.1349 47.2078C60.5207 46.1383 59.5235 45.3948 58.7065 45.3948Z" fill="#769687"/>
</g>
<mask id="mask25_174_3103" style="mask-type:luminance" maskUnits="userSpaceOnUse" x="-1" y="-1" width="74" height="161">
<path d="M-0.624512 -0.249512H72.6238V159.898H-0.624512V-0.249512Z" fill="white"/>
</mask>
<g mask="url(#mask25_174_3103)">
<path d="M56.5089 45.2261C55.4477 45.2261 54.2584 44.4791 53.4034 43.2766C52.1816 41.5738 52.0763 39.5462 53.1658 38.6638C54.2552 37.7746 56.2529 38.4963 57.4812 40.2003C58.2462 41.2823 58.5967 42.5307 58.4187 43.5428C58.3134 44.1406 58.0324 44.6088 57.6049 44.9002C57.2775 45.1197 56.8965 45.233 56.5089 45.2261ZM54.3561 39.1274C54.1169 39.1182 53.8818 39.1946 53.6888 39.3443C52.9824 39.9157 53.1636 41.482 54.0827 42.7637C54.9844 44.0339 56.3852 44.6879 57.1372 44.1773C57.4313 43.9777 57.5452 43.638 57.5886 43.389C57.7242 42.6156 57.4237 41.591 56.8019 40.7132C56.1085 39.7493 55.1482 39.1274 54.3561 39.1274Z" fill="#769687"/>
</g>
<mask id="mask26_174_3103" style="mask-type:luminance" maskUnits="userSpaceOnUse" x="-1" y="-1" width="74" height="161">
<path d="M-0.624512 -0.249512H72.6238V159.898H-0.624512V-0.249512Z" fill="white"/>
</mask>
<g mask="url(#mask26_174_3103)">
<path d="M51.8725 39.1458C50.8579 39.1458 49.6773 38.4734 48.7897 37.3937C47.4496 35.7046 47.2391 33.7253 48.2992 32.7832C48.6367 32.4815 49.0859 32.3208 49.5948 32.3208C50.6409 32.3208 51.8215 32.9909 52.6787 34.0707C53.4958 35.0655 53.9233 36.2738 53.8191 37.2961C53.7562 37.91 53.5055 38.4057 53.0964 38.735C52.7423 39.0107 52.3121 39.1551 51.8725 39.1458ZM49.5948 33.1871C49.2888 33.1871 49.0382 33.2697 48.8515 33.4384C48.1679 34.0454 48.4316 35.5727 49.4386 36.8418C50.4195 38.0328 51.8822 38.6134 52.5767 38.0523C52.8621 37.8228 52.9532 37.4648 52.9803 37.2055C53.0606 36.4241 52.696 35.4361 52.0298 34.6226C51.3353 33.7482 50.3815 33.1871 49.5948 33.1871Z" fill="#769687"/>
</g>
<mask id="mask27_174_3103" style="mask-type:luminance" maskUnits="userSpaceOnUse" x="-1" y="-1" width="74" height="161">
<path d="M-0.624512 -0.249512H72.6238V159.898H-0.624512V-0.249512Z" fill="white"/>
</mask>
<g mask="url(#mask27_174_3103)">
<path d="M46.8896 33.3316C45.8902 33.3316 44.7585 32.7384 43.8622 31.7458C42.9995 30.782 42.5123 29.6059 42.559 28.5927C42.5861 27.9903 42.802 27.4831 43.184 27.132C44.1986 26.1922 46.2092 26.6959 47.5786 28.2232C48.4586 29.1985 48.948 30.3941 48.8851 31.4234C48.8482 32.0247 48.6225 32.5192 48.2319 32.8566C47.8781 33.1652 47.4137 33.3316 46.8896 33.3316ZM44.5425 27.4991C44.2137 27.4991 43.9457 27.5921 43.7472 27.7768C43.4824 28.0212 43.413 28.3769 43.401 28.6328C43.3652 29.4073 43.7797 30.3747 44.4807 31.1584C45.5202 32.3092 47.0046 32.7958 47.6871 32.1945C47.902 32.0109 48.0214 31.7332 48.0441 31.3695C48.0908 30.5846 47.6763 29.6036 46.9601 28.8107C46.2331 28.0017 45.3064 27.4991 44.5425 27.4991Z" fill="#769687"/>
</g>
<mask id="mask28_174_3103" style="mask-type:luminance" maskUnits="userSpaceOnUse" x="-1" y="-1" width="74" height="161">
<path d="M-0.624512 -0.249512H72.6238V159.898H-0.624512V-0.249512Z" fill="white"/>
</mask>
<g mask="url(#mask28_174_3103)">
<path d="M41.7842 27.7C40.7664 27.7 39.5902 27.0551 38.7156 26.0156C37.8746 25.0207 37.4254 23.8182 37.5133 22.797C37.5665 22.1877 37.8074 21.6897 38.2099 21.3581C39.2549 20.4872 41.2308 21.0689 42.5351 22.6134C43.9002 24.229 44.1584 26.2462 43.12 27.2055C42.776 27.5279 42.3127 27.7 41.7842 27.7ZM39.473 21.7906C39.1789 21.7906 38.9315 21.8698 38.7406 22.0305C38.4606 22.2611 38.376 22.6168 38.3532 22.875C38.2859 23.6541 38.6689 24.6386 39.3525 25.4476C40.366 26.6535 41.8938 27.1802 42.5547 26.5629C43.2252 25.9433 42.9236 24.3954 41.8982 23.1791C41.1744 22.3231 40.2456 21.7906 39.473 21.7906Z" fill="#769687"/>
</g>
<mask id="mask29_174_3103" style="mask-type:luminance" maskUnits="userSpaceOnUse" x="-1" y="-1" width="74" height="161">
<path d="M-0.624512 -0.249512H72.6238V159.898H-0.624512V-0.249512Z" fill="white"/>
</mask>
<g mask="url(#mask29_174_3103)">
<path d="M36.9264 21.848C35.8597 21.848 34.6618 21.1148 33.8002 19.9341C33.0233 18.8555 32.6663 17.6036 32.8464 16.5812C32.9527 15.98 33.237 15.5095 33.6722 15.2192C34.7985 14.4653 36.6659 15.1813 37.8541 16.8291C39.1042 18.5456 39.2279 20.5227 38.1417 21.4269C37.7938 21.7095 37.365 21.8581 36.9264 21.848ZM34.7551 15.7665C34.5164 15.7665 34.307 15.8273 34.1323 15.9444C33.8349 16.1429 33.7199 16.4848 33.6754 16.7361C33.5387 17.5152 33.8458 18.5434 34.4762 19.4177C35.4083 20.6948 36.9166 21.3397 37.6089 20.7568C38.3142 20.1693 38.12 18.6386 37.177 17.3443C36.4858 16.3862 35.5342 15.7665 34.7551 15.7665Z" fill="#769687"/>
</g>
<mask id="mask30_174_3103" style="mask-type:luminance" maskUnits="userSpaceOnUse" x="-1" y="-1" width="74" height="161">
<path d="M-0.624512 -0.249512H72.6238V159.898H-0.624512V-0.249512Z" fill="white"/>
</mask>
<g mask="url(#mask30_174_3103)">
<path d="M32.5903 15.5785C31.4487 15.5785 30.1813 14.6238 29.437 13.201C28.8033 12.0111 28.6372 10.6479 29.0062 9.64733C29.221 9.06558 29.6095 8.64446 30.0978 8.46316C31.3413 7.99385 32.931 8.94738 33.8859 10.7271C34.8451 12.5699 34.7225 14.524 33.6016 15.2779C33.2995 15.4805 32.9479 15.585 32.5903 15.5785ZM30.7814 9.2067C30.6436 9.2067 30.5112 9.22966 30.3853 9.27785C30.0587 9.39833 29.884 9.71274 29.795 9.9537C29.5162 10.7133 29.6659 11.8263 30.1781 12.7879C30.8715 14.1109 31.9132 14.7145 32.5903 14.7145C32.7836 14.7189 32.9739 14.6639 33.1382 14.5561C33.8804 14.0558 33.8815 12.5561 33.1447 11.1402C32.5262 9.98582 31.5746 9.2067 30.7814 9.2067Z" fill="#769687"/>
</g>
<mask id="mask31_174_3103" style="mask-type:luminance" maskUnits="userSpaceOnUse" x="-1" y="-1" width="74" height="161">
<path d="M-0.624512 -0.249512H72.6238V159.898H-0.624512V-0.249512Z" fill="white"/>
</mask>
<g mask="url(#mask31_174_3103)">
<path d="M29.4273 8.61465C28.2293 8.61465 26.8306 7.28819 26.5626 5.06673C26.5143 4.48216 26.5454 3.89329 26.6548 3.31802C26.8111 2.75118 27.0183 2.2681 27.2647 1.89403C27.8918 1.07131 28.6861 0.743139 29.4218 0.964596C30.0197 1.14704 30.5449 1.62898 30.9377 2.36105C31.1287 2.67316 31.2741 3.01624 31.3566 3.36162C31.5063 3.72766 31.5616 4.15451 31.5899 4.48153C31.7504 5.99846 31.4347 7.96748 30.011 8.50563C29.8244 8.57963 29.6265 8.61659 29.4273 8.61465ZM28.9563 1.76208C28.621 1.76208 28.2619 1.98927 27.9472 2.40235C27.7353 2.74827 27.5753 3.12683 27.473 3.52456C27.3858 4.00374 27.3617 4.49337 27.4014 4.97953C27.6314 6.89577 28.9108 7.99731 29.7148 7.69668C30.6209 7.35244 30.8856 5.83437 30.7522 4.56873C30.7153 4.15909 30.6578 3.88256 30.5568 3.62897C30.4776 3.31457 30.368 3.05526 30.2118 2.80167C30.0024 2.41039 29.6649 1.94222 29.182 1.79535C29.1088 1.77249 29.0327 1.76128 28.9563 1.76208Z" fill="#769687"/>
</g>
<mask id="mask32_174_3103" style="mask-type:luminance" maskUnits="userSpaceOnUse" x="-1" y="-1" width="74" height="161">
<path d="M-0.624512 -0.249512H72.6238V159.898H-0.624512V-0.249512Z" fill="white"/>
</mask>
<g mask="url(#mask32_174_3103)">
<path d="M46.9146 148.166L45.9131 130.174L36.5693 118.561H36.4044L27.0595 130.174L26.0591 148.166L36.4044 158.75H36.5693L46.9146 148.166Z" fill="#769687"/>
</g>
<mask id="mask33_174_3103" style="mask-type:luminance" maskUnits="userSpaceOnUse" x="-1" y="-1" width="74" height="161">
<path d="M-0.624512 -0.249512H72.6238V159.898H-0.624512V-0.249512Z" fill="white"/>
</mask>
<g mask="url(#mask33_174_3103)">
<path d="M23.4092 133.373V120.852L16.9323 113.623L10.6257 120.852V132.436L16.9323 139.25L23.4092 133.373Z" fill="#769687"/>
</g>
<mask id="mask34_174_3103" style="mask-type:luminance" maskUnits="userSpaceOnUse" x="-1" y="-1" width="74" height="161">
<path d="M-0.624512 -0.249512H72.6238V159.898H-0.624512V-0.249512Z" fill="white"/>
</mask>
<g mask="url(#mask34_174_3103)">
<path d="M61.699 133.373V120.852L55.2221 113.623L48.9155 120.852V132.436L55.2221 139.25L61.699 133.373Z" fill="#769687"/>
</g>
<mask id="mask35_174_3103" style="mask-type:luminance" maskUnits="userSpaceOnUse" x="-1" y="-1" width="74" height="161">
<path d="M-0.624512 -0.249512H72.6238V159.898H-0.624512V-0.249512Z" fill="white"/>
</mask>
<g mask="url(#mask35_174_3103)">
<path d="M9.36607 117.634V108.911L4.85424 103.875L0.460693 108.911V116.982L4.85424 121.728L9.36607 117.634Z" fill="#769687"/>
</g>
<mask id="mask36_174_3103" style="mask-type:luminance" maskUnits="userSpaceOnUse" x="-1" y="-1" width="74" height="161">
<path d="M-0.624512 -0.249512H72.6238V159.898H-0.624512V-0.249512Z" fill="white"/>
</mask>
<g mask="url(#mask36_174_3103)">
<path d="M71.5387 117.634V108.91L67.0269 103.875L62.6333 108.91V116.98L67.0269 121.728L71.5387 117.634Z" fill="#769687"/>
</g>
</svg>
