<svg width="72" height="158" viewBox="0 0 72 158" fill="none" xmlns="http://www.w3.org/2000/svg">
<mask id="mask0_375_2515" style="mask-type:luminance" maskUnits="userSpaceOnUse" x="0" y="0" width="72" height="158">
<path d="M0 0H71.0786V157.853H0V0Z" fill="white"/>
</mask>
<g mask="url(#mask0_375_2515)">
<mask id="mask1_375_2515" style="mask-type:luminance" maskUnits="userSpaceOnUse" x="-2" y="-2" width="75" height="162">
<path d="M-1.08521 -1.14697H72.1631V159H-1.08521V-1.14697Z" fill="white"/>
</mask>
<g mask="url(#mask1_375_2515)">
<path d="M26.3438 35.9017C26.2798 35.9017 26.219 35.8994 26.1561 35.8937C25.2935 35.8547 24.612 35.4944 24.2463 34.8793C23.8666 34.2482 23.8948 33.4393 24.331 32.6005C24.6218 32.0566 25.2815 31.0836 26.4588 30.6372C27.1783 30.3148 27.9411 30.1404 28.6399 30.1404C29.8281 30.1404 30.7059 30.6487 30.9848 31.499C31.4405 32.8656 30.3945 34.5535 28.6019 35.336C27.7675 35.6401 27.0491 35.9017 26.3438 35.9017ZM28.6399 31.0067C28.0539 31.0067 27.4083 31.157 26.7724 31.4404C25.8306 31.7984 25.3043 32.5787 25.0721 33.0124C24.7867 33.5621 24.7466 34.0669 24.9636 34.4261C25.2555 34.9149 25.8653 35.0136 26.2028 35.0297L26.3438 35.0354C26.9048 35.0354 27.5266 34.8105 28.2482 34.5466C29.6132 33.9534 30.49 32.6877 30.1862 31.7778C30.0277 31.2936 29.4505 31.0067 28.6399 31.0067Z" fill="white"/>
</g>
<mask id="mask2_375_2515" style="mask-type:luminance" maskUnits="userSpaceOnUse" x="-2" y="-2" width="75" height="162">
<path d="M-1.08521 -1.14697H72.1631V159H-1.08521V-1.14697Z" fill="white"/>
</mask>
<g mask="url(#mask2_375_2515)">
<path d="M19.9092 40.3218C19.2983 40.3218 18.7818 40.1164 18.415 39.724C17.9104 39.1882 17.7542 38.3425 17.9994 37.4647C18.2739 36.6351 18.8653 35.825 19.6683 35.1583C20.6308 34.3907 21.475 34.0155 22.2562 34.0051C23.2187 34.0051 23.9186 34.339 24.2962 34.9449C24.6717 35.5416 24.6879 36.3425 24.3385 37.1354C23.9479 38.0292 23.4357 38.7315 22.8194 39.2226C22.1228 39.7975 21.284 40.1738 20.4615 40.2702C20.2792 40.3045 20.0944 40.3218 19.9092 40.3218ZM22.3278 34.8715C21.6855 34.8795 20.9867 35.2031 20.1913 35.8365C19.5261 36.3884 19.0183 37.078 18.8035 37.7229C18.6483 38.2794 18.7286 38.8106 19.0216 39.1239C19.3059 39.4257 19.7833 39.5186 20.34 39.4142C21.0551 39.3191 21.7318 39.0182 22.2964 38.5444C22.8096 38.1348 23.235 37.5427 23.5703 36.7797C23.7048 36.4733 23.8871 35.8881 23.5876 35.413C23.3685 35.0631 22.9225 34.8715 22.3278 34.8715Z" fill="white"/>
</g>
<mask id="mask3_375_2515" style="mask-type:luminance" maskUnits="userSpaceOnUse" x="-2" y="-2" width="75" height="162">
<path d="M-1.08521 -1.14697H72.1631V159H-1.08521V-1.14697Z" fill="white"/>
</mask>
<g mask="url(#mask3_375_2515)">
<path d="M14.8517 46.0625C14.4177 46.0625 14.0162 45.942 13.6885 45.7148C13.2783 45.4291 13.0103 44.977 12.9181 44.4033C12.7531 43.3832 13.1503 42.1015 13.9815 40.9781C14.8647 39.9064 16.0583 39.2512 17.112 39.2512C17.686 39.2512 18.1699 39.4451 18.5117 39.8089C19.472 40.814 19.217 42.6534 17.8878 44.2805C17.0848 45.3717 15.9162 46.0625 14.8517 46.0625ZM17.112 40.1175C16.3122 40.1175 15.3411 40.6672 14.639 41.5197C13.9695 42.4251 13.6245 43.4819 13.7492 44.261C13.8046 44.5995 13.9435 44.8462 14.1616 44.9965C14.9125 45.5289 16.3578 44.9231 17.2292 43.7412C18.2491 42.4928 18.5345 41.0688 17.9073 40.4124C17.6784 40.1692 17.3474 40.1175 17.112 40.1175Z" fill="white"/>
</g>
<mask id="mask4_375_2515" style="mask-type:luminance" maskUnits="userSpaceOnUse" x="-2" y="-2" width="75" height="162">
<path d="M-1.08521 -1.14697H72.1631V159H-1.08521V-1.14697Z" fill="white"/>
</mask>
<g mask="url(#mask4_375_2515)">
<path d="M10.9128 52.6763C10.6372 52.6763 10.3713 52.6167 10.1207 52.4985C9.4642 52.1864 9.04861 51.499 8.95096 50.5639C8.83702 49.6367 9.07574 48.6121 9.60852 47.7584C10.699 45.8651 12.6034 44.9333 13.7471 45.7446C14.907 46.5639 15.021 48.5742 14.0032 50.3229C13.0819 51.8215 11.9578 52.6763 10.9128 52.6763ZM12.7423 46.2988C11.9567 46.2988 10.9855 47.0676 10.3269 48.2127C9.89173 48.9104 9.6975 49.7251 9.78757 50.4629C9.85484 51.0917 10.0979 51.5335 10.4723 51.7113C11.2666 52.0946 12.3929 51.3212 13.2859 49.8697C14.0433 48.5673 14.0379 46.9999 13.2696 46.456C13.1125 46.3493 12.9289 46.2946 12.7423 46.2988Z" fill="white"/>
</g>
<mask id="mask5_375_2515" style="mask-type:luminance" maskUnits="userSpaceOnUse" x="-2" y="-2" width="75" height="162">
<path d="M-1.08521 -1.14697H72.1631V159H-1.08521V-1.14697Z" fill="white"/>
</mask>
<g mask="url(#mask5_375_2515)">
<path d="M8.09804 59.8352C7.93528 59.8352 7.77577 59.8134 7.62386 59.7698C7.11821 59.6298 6.70804 59.2776 6.43677 58.7497C5.9756 57.8513 5.96583 56.5329 6.41181 55.2236C6.90878 53.5725 8.19462 52.363 9.46418 52.363C9.73003 52.363 9.9796 52.4193 10.2086 52.5294C11.4076 53.0894 11.7982 54.8714 11.1776 56.9597C10.6046 58.6327 9.31227 59.8352 8.09804 59.8352ZM9.46418 53.2294C8.69159 53.2294 7.63905 54.0762 7.21152 55.4944C6.84259 56.5799 6.83282 57.6654 7.18222 58.3458C7.3439 58.6579 7.56635 58.8587 7.84413 58.9356C8.60587 59.1433 9.82986 58.2873 10.3767 56.6889C10.8553 55.0791 10.6426 53.6849 9.8559 53.3143C9.73246 53.2571 9.59896 53.2281 9.46418 53.2294Z" fill="white"/>
</g>
<mask id="mask6_375_2515" style="mask-type:luminance" maskUnits="userSpaceOnUse" x="-2" y="-2" width="75" height="162">
<path d="M-1.08521 -1.14697H72.1631V159H-1.08521V-1.14697Z" fill="white"/>
</mask>
<g mask="url(#mask6_375_2515)">
<path d="M6.51159 67.3774C6.43998 67.3774 6.36945 67.374 6.29783 67.3636C5.79869 67.3063 5.34837 67.0252 4.99897 66.5513C4.38481 65.7216 4.14392 64.417 4.35334 63.0596C4.86442 60.8668 6.40091 59.4038 7.73884 59.7905C9.09955 60.1806 9.79184 62.0533 9.31223 64.0567C9.03987 65.9339 7.83216 67.3774 6.51159 67.3774ZM7.27333 60.5914C6.54741 60.5914 5.56539 61.5771 5.1791 63.2282C5.01416 64.308 5.19972 65.3923 5.66956 66.0269C5.81497 66.2219 6.05803 66.4652 6.39441 66.5031C7.31782 66.6419 8.26511 65.3981 8.48647 63.8892C8.85215 62.3562 8.40183 60.8783 7.51206 60.6258C7.4344 60.6026 7.35404 60.591 7.27333 60.5914Z" fill="white"/>
</g>
<mask id="mask7_375_2515" style="mask-type:luminance" maskUnits="userSpaceOnUse" x="-2" y="-2" width="75" height="162">
<path d="M-1.08521 -1.14697H72.1631V159H-1.08521V-1.14697Z" fill="white"/>
</mask>
<g mask="url(#mask7_375_2515)">
<path d="M6.0048 75.071C5.47093 75.071 4.94141 74.8083 4.51279 74.3309C3.8205 73.5599 3.46784 72.3459 3.56876 71.0837C3.65773 68.8496 4.91102 67.1766 6.36939 67.3636C7.71708 67.53 8.70452 69.2684 8.61879 71.3189C8.43107 73.5208 7.40783 75.0217 6.07099 75.071H6.0048ZM6.14695 68.2139C5.25283 68.2139 4.47373 69.5254 4.40971 71.1376C4.32833 72.1634 4.60502 73.1571 5.13238 73.7446C5.39931 74.0429 5.70965 74.207 6.0048 74.207V74.6396L6.03952 74.2047C6.90543 74.1737 7.6357 72.9356 7.77784 71.2638C7.84186 69.7331 7.15066 68.3332 6.26631 68.2219C6.22507 68.2185 6.18601 68.2139 6.14695 68.2139Z" fill="white"/>
</g>
<mask id="mask8_375_2515" style="mask-type:luminance" maskUnits="userSpaceOnUse" x="-2" y="-2" width="75" height="162">
<path d="M-1.08521 -1.14697H72.1631V159H-1.08521V-1.14697Z" fill="white"/>
</mask>
<g mask="url(#mask8_375_2515)">
<path d="M6.64937 82.7625C5.34942 82.7625 4.20031 81.2697 3.91493 79.2146C3.73589 77.9375 4.03537 76.681 4.71356 75.856C5.12589 75.3557 5.64457 75.0711 6.17518 75.0574C7.56085 75.0574 8.6199 76.4458 8.93784 78.5938C9.22105 80.6305 8.36274 82.4446 6.98358 82.7292C6.87338 82.7511 6.7615 82.7623 6.64937 82.7625ZM6.24137 75.9214C5.91042 75.9317 5.61202 76.1061 5.35702 76.4159C4.83943 77.0447 4.60613 78.0694 4.74937 79.0918C4.97832 80.7418 5.92452 82.0522 6.81647 81.879C7.72687 81.6931 8.31608 80.245 8.1034 78.72C7.86034 77.0746 7.09426 75.9214 6.24137 75.9214Z" fill="white"/>
</g>
<mask id="mask9_375_2515" style="mask-type:luminance" maskUnits="userSpaceOnUse" x="-2" y="-2" width="75" height="162">
<path d="M-1.08521 -1.14697H72.1631V159H-1.08521V-1.14697Z" fill="white"/>
</mask>
<g mask="url(#mask9_375_2515)">
<path d="M8.59158 90.2107C7.32419 90.2107 6.01665 88.9037 5.54897 87.1688C5.20825 85.7965 5.32653 84.4631 5.86365 83.5956C6.16748 83.1034 6.58849 82.7924 7.08113 82.696C8.4516 82.4184 9.93384 83.7827 10.4069 85.731C10.9636 87.7781 10.4786 89.5739 9.22419 90.0856C9.02296 90.1702 8.80812 90.2127 8.59158 90.2107ZM7.44246 83.5257C7.37472 83.5257 7.30713 83.5326 7.24064 83.5463C6.97696 83.5968 6.75451 83.7712 6.57547 84.0604C6.16639 84.7201 6.08609 85.8263 6.36279 86.9473C6.82179 88.6467 8.15754 89.6037 8.90952 89.2835C9.73853 88.9451 10.0239 87.5429 9.59204 85.9525C9.26 84.5859 8.31705 83.5257 7.44246 83.5257Z" fill="white"/>
</g>
<mask id="mask10_375_2515" style="mask-type:luminance" maskUnits="userSpaceOnUse" x="-2" y="-2" width="75" height="162">
<path d="M-1.08521 -1.14697H72.1631V159H-1.08521V-1.14697Z" fill="white"/>
</mask>
<g mask="url(#mask10_375_2515)">
<path d="M11.7124 97.1986C11.3174 97.1986 10.905 97.0873 10.484 96.8727C9.76786 96.4688 9.10921 95.7149 8.6144 94.7419C8.12611 93.7597 7.91018 92.7683 8.00458 91.9513C8.16518 90.9943 8.62092 90.3265 9.28825 90.0488C9.9252 89.7826 10.7021 89.9169 11.3955 90.4229C12.1225 90.892 12.7145 91.5621 13.1078 92.3609C13.5052 93.1518 13.6941 94.0412 13.6547 94.9358C13.6384 95.8285 13.2988 96.5342 12.6987 96.9175C12.4009 97.106 12.0594 97.2033 11.7124 97.1986ZM9.97945 90.7775C9.85167 90.7769 9.72497 90.8022 9.60618 90.8521C9.21663 91.0127 8.94427 91.4476 8.83793 92.0764C8.76632 92.7029 8.95187 93.5164 9.36312 94.3472C9.77328 95.1538 10.3256 95.7941 10.8757 96.1051C11.3847 96.3655 11.9055 96.4057 12.2538 96.182C12.7247 95.8813 12.8061 95.2548 12.8126 94.9083C12.8471 94.161 12.6904 93.4178 12.3591 92.7568C12.0309 92.0919 11.5371 91.5344 10.9311 91.1447C10.5925 90.898 10.2724 90.7775 9.97945 90.7775Z" fill="white"/>
</g>
<mask id="mask11_375_2515" style="mask-type:luminance" maskUnits="userSpaceOnUse" x="-2" y="-2" width="75" height="162">
<path d="M-1.08521 -1.14697H72.1631V159H-1.08521V-1.14697Z" fill="white"/>
</mask>
<g mask="url(#mask11_375_2515)">
<path d="M16.0018 103.495C14.8928 103.495 13.6656 102.748 12.8745 101.59C12.0944 100.558 11.7298 99.3122 11.911 98.2714C12.0184 97.6484 12.3266 97.1447 12.7769 96.8555C13.8869 96.1372 15.6914 96.8498 16.9165 98.4711C18.1383 100.259 18.2859 102.079 17.2974 103.014C16.9729 103.327 16.5237 103.495 16.0018 103.495ZM13.8142 97.4246C13.5918 97.4246 13.3932 97.4809 13.2261 97.5899C12.9093 97.793 12.7866 98.1544 12.74 98.4241C12.6033 99.2146 12.9136 100.229 13.5516 101.076C14.2895 102.153 15.3117 102.628 16.0018 102.628C16.2134 102.628 16.5107 102.585 16.7223 102.379C17.3799 101.759 17.1791 100.364 16.2383 98.9852C15.5276 98.0442 14.5716 97.4246 13.8142 97.4246Z" fill="white"/>
</g>
<mask id="mask12_375_2515" style="mask-type:luminance" maskUnits="userSpaceOnUse" x="-2" y="-2" width="75" height="162">
<path d="M-1.08521 -1.14697H72.1631V159H-1.08521V-1.14697Z" fill="white"/>
</mask>
<g mask="url(#mask12_375_2515)">
<path d="M21.2581 108.845C20.301 108.845 19.2506 108.394 18.3728 107.607C17.3615 106.681 16.7593 105.495 16.7571 104.433C16.7571 103.819 16.9589 103.31 17.3419 102.958C18.324 102.036 20.2446 102.367 21.6954 103.687C23.1906 105.042 23.7516 106.847 23.0278 107.981C22.6752 108.539 22.0458 108.845 21.2581 108.845ZM18.822 103.278C18.4422 103.278 18.1352 103.387 17.9073 103.6C17.6523 103.834 17.6002 104.182 17.6002 104.433C17.6013 105.24 18.1113 106.207 18.9305 106.959C20.1144 108.017 21.8364 108.271 22.3225 107.506C22.8065 106.749 22.2965 105.387 21.1365 104.336C20.4084 103.674 19.5425 103.278 18.822 103.278Z" fill="white"/>
</g>
<mask id="mask13_375_2515" style="mask-type:luminance" maskUnits="userSpaceOnUse" x="-2" y="-2" width="75" height="162">
<path d="M-1.08521 -1.14697H72.1631V159H-1.08521V-1.14697Z" fill="white"/>
</mask>
<g mask="url(#mask13_375_2515)">
<path d="M27.3519 112.659C26.6661 112.659 25.9412 112.487 25.2598 112.159C24.0119 111.533 23.1113 110.546 22.8455 109.517C22.6903 108.915 22.7663 108.36 23.0668 107.905C23.4857 107.264 24.255 106.911 25.2348 106.911C25.9369 106.911 26.7073 107.105 27.404 107.452C29.1933 108.322 30.2046 109.839 29.8563 111.139C29.6132 112.062 28.629 112.659 27.3519 112.659ZM25.2348 107.777C24.5556 107.777 24.0195 108 23.7656 108.39C23.5627 108.694 23.5964 109.051 23.6593 109.294C23.8611 110.073 24.6131 110.872 25.6233 111.378C27.06 112.068 28.8135 111.779 29.0435 110.911C29.2768 110.037 28.4337 108.912 27.0394 108.234C26.4762 107.945 25.8605 107.789 25.2348 107.777Z" fill="white"/>
</g>
<mask id="mask14_375_2515" style="mask-type:luminance" maskUnits="userSpaceOnUse" x="-2" y="-2" width="75" height="162">
<path d="M-1.08521 -1.14697H72.1631V159H-1.08521V-1.14697Z" fill="white"/>
</mask>
<g mask="url(#mask14_375_2515)">
<path d="M33.9201 114.401C33.7057 114.401 33.4915 114.387 33.2788 114.357C31.9593 114.229 30.7625 113.584 30.17 112.68C29.8249 112.152 29.7175 111.578 29.8683 111.063C30.2243 109.773 31.8248 109.014 33.8051 109.192C35.8559 109.476 37.2242 110.527 37.3099 111.873C37.3468 112.635 36.9258 113.319 36.125 113.803C35.526 114.188 34.7393 114.401 33.9201 114.401ZM33.2419 110.033C31.8975 110.033 30.8905 110.533 30.6767 111.306C30.5769 111.648 30.7267 111.979 30.8699 112.198C31.2269 112.742 32.0722 113.368 33.3743 113.497C34.3162 113.624 35.0877 113.448 35.6888 113.062C35.997 112.876 36.4961 112.487 36.469 111.923C36.4028 110.886 35.0367 110.236 33.7118 110.052C33.5554 110.04 33.3987 110.033 33.2419 110.033Z" fill="white"/>
</g>
<mask id="mask15_375_2515" style="mask-type:luminance" maskUnits="userSpaceOnUse" x="-2" y="-2" width="75" height="162">
<path d="M-1.08521 -1.14697H72.1631V159H-1.08521V-1.14697Z" fill="white"/>
</mask>
<g mask="url(#mask15_375_2515)">
<path d="M40.3935 113.885C38.6878 113.885 37.3531 112.967 37.2913 111.753C37.2153 110.392 38.5109 109.131 40.4413 108.683C40.8656 108.58 41.2974 108.527 41.7217 108.527C43.1269 108.527 44.2272 109.115 44.5918 110.06C44.7882 110.564 44.7426 111.146 44.4637 111.7C43.9809 112.657 42.9001 113.422 41.5741 113.746C41.1865 113.837 40.7907 113.884 40.3935 113.885ZM41.7217 109.394C41.3625 109.394 40.9958 109.438 40.6323 109.528C39.1544 109.87 38.0823 110.805 38.1322 111.706C38.18 112.636 39.7946 113.267 41.3821 112.901C42.4531 112.641 43.3483 112.026 43.715 111.3C43.8322 111.07 43.9429 110.722 43.8083 110.38C43.5783 109.782 42.7591 109.394 41.7217 109.394Z" fill="white"/>
</g>
<mask id="mask16_375_2515" style="mask-type:luminance" maskUnits="userSpaceOnUse" x="-2" y="-2" width="75" height="162">
<path d="M-1.08521 -1.14697H72.1631V159H-1.08521V-1.14697Z" fill="white"/>
</mask>
<g mask="url(#mask16_375_2515)">
<path d="M46.811 111.281C45.6966 111.281 44.8524 110.795 44.5508 109.978C44.0701 108.692 44.9826 107.049 46.7264 106.074C48.4332 105.118 50.3474 105.176 51.1156 106.262C51.4249 106.692 51.5236 107.271 51.3923 107.887C51.1666 108.939 50.3376 109.96 49.1765 110.619C48.3985 111.052 47.5814 111.281 46.811 111.281ZM49.1592 106.24C48.5331 106.24 47.8126 106.449 47.13 106.834C45.8073 107.573 45.0206 108.819 45.3396 109.669C45.6543 110.527 47.3525 110.652 48.7718 109.859C49.7071 109.329 50.3973 108.502 50.5687 107.7C50.6241 107.441 50.6458 107.069 50.4352 106.774C50.1227 106.331 49.5683 106.24 49.1592 106.24Z" fill="white"/>
</g>
<mask id="mask17_375_2515" style="mask-type:luminance" maskUnits="userSpaceOnUse" x="-2" y="-2" width="75" height="162">
<path d="M-1.08521 -1.14697H72.1631V159H-1.08521V-1.14697Z" fill="white"/>
</mask>
<g mask="url(#mask17_375_2515)">
<path d="M52.7443 106.986C52.0075 106.986 51.4107 106.71 51.0634 106.203C50.2681 105.074 50.7585 103.278 52.257 101.84C53.7957 100.465 55.6263 100.107 56.6115 101.014C57.0022 101.367 57.2181 101.913 57.217 102.553C57.217 103.632 56.6365 104.8 55.6632 105.681C54.7929 106.51 53.7263 106.986 52.7443 106.986ZM55.2053 101.359C54.4989 101.359 53.6091 101.781 52.8213 102.483C51.6722 103.586 51.2164 104.944 51.7492 105.701C51.9369 105.973 52.2885 106.122 52.7443 106.122C53.5049 106.122 54.3849 105.716 55.0989 105.038C55.8878 104.324 56.3739 103.375 56.375 102.553C56.375 102.279 56.3196 101.903 56.0516 101.66C55.8346 101.46 55.5503 101.359 55.2053 101.359Z" fill="white"/>
</g>
<mask id="mask18_375_2515" style="mask-type:luminance" maskUnits="userSpaceOnUse" x="-2" y="-2" width="75" height="162">
<path d="M-1.08521 -1.14697H72.1631V159H-1.08521V-1.14697Z" fill="white"/>
</mask>
<g mask="url(#mask18_375_2515)">
<path d="M57.803 101.426C57.3027 101.426 56.8643 101.264 56.5388 100.959C55.5286 100.029 55.6555 98.1647 56.8513 96.4286C58.1122 94.7407 59.8364 94.0396 60.9779 94.7396C61.425 95.0127 61.7386 95.5061 61.858 96.1291C62.0576 97.1836 61.7126 98.4412 60.9324 99.4957C60.1196 100.664 58.8891 101.426 57.803 101.426ZM59.9623 95.3248C59.219 95.3248 58.2641 95.9593 57.5295 96.9404C56.6137 98.2714 56.4303 99.6977 57.1042 100.316C57.3201 100.518 57.6022 100.559 57.803 100.559C58.6255 100.559 59.5879 99.941 60.2542 98.9828C60.8879 98.1245 61.183 97.0987 61.03 96.2978C60.979 96.0282 60.8532 95.6702 60.5461 95.4831C60.3683 95.3762 60.1668 95.3215 59.9623 95.3248Z" fill="white"/>
</g>
<mask id="mask19_375_2515" style="mask-type:luminance" maskUnits="userSpaceOnUse" x="-2" y="-2" width="75" height="162">
<path d="M-1.08521 -1.14697H72.1631V159H-1.08521V-1.14697Z" fill="white"/>
</mask>
<g mask="url(#mask19_375_2515)">
<path d="M61.8233 94.9633C61.4848 94.9633 61.1744 94.8761 60.9032 94.7063C59.7302 93.98 59.5207 92.0763 60.4062 90.175C61.3122 88.3127 62.9225 87.2743 64.1725 87.7608C64.6673 87.9524 65.0482 88.3632 65.2739 88.953C65.6537 89.9398 65.5354 91.2433 64.9571 92.4435C64.2496 93.949 62.9898 94.9633 61.8233 94.9633ZM63.4987 88.4997C62.712 88.4997 61.7517 89.3466 61.1636 90.5571C60.4843 92.0144 60.5581 93.482 61.3404 93.965C62.0251 94.4011 63.4119 93.7413 64.1997 92.0637C64.6673 91.0907 64.778 90.0213 64.4905 89.272C64.395 89.0241 64.2116 88.7017 63.8741 88.5709C63.7541 88.5235 63.6269 88.4994 63.4987 88.4997Z" fill="white"/>
</g>
<mask id="mask20_375_2515" style="mask-type:luminance" maskUnits="userSpaceOnUse" x="-2" y="-2" width="75" height="162">
<path d="M-1.08521 -1.14697H72.1631V159H-1.08521V-1.14697Z" fill="white"/>
</mask>
<g mask="url(#mask20_375_2515)">
<path d="M64.7313 87.8606C64.5099 87.8606 64.2951 87.8193 64.0911 87.7378C62.8096 87.2295 62.2714 85.3053 62.8671 83.3557C63.3771 81.4177 64.8365 80.0465 66.1745 80.3253C66.6855 80.4286 67.1217 80.7568 67.4332 81.2708C67.966 82.1509 68.0756 83.4682 67.7272 84.7946C67.1749 86.6065 65.9466 87.8606 64.7313 87.8606ZM65.8218 81.1561C64.9787 81.1561 64.0357 82.2278 63.6766 83.5967C63.2241 85.0781 63.5561 86.5973 64.396 86.9312C65.2608 87.2835 66.4338 86.1417 66.9178 84.5537C67.1977 83.4854 67.1228 82.3988 66.7181 81.7298C66.5293 81.4188 66.2917 81.2318 66.0117 81.1756C65.9492 81.1623 65.8856 81.1557 65.8218 81.1561Z" fill="white"/>
</g>
<mask id="mask21_375_2515" style="mask-type:luminance" maskUnits="userSpaceOnUse" x="-2" y="-2" width="75" height="162">
<path d="M-1.08521 -1.14697H72.1631V159H-1.08521V-1.14697Z" fill="white"/>
</mask>
<g mask="url(#mask21_375_2515)">
<path d="M66.4252 80.3539C66.308 80.3539 66.1898 80.3425 66.0758 80.3161C64.7422 80.0395 63.9338 78.3149 64.1563 76.2162C64.408 74.1141 65.5289 72.6511 66.882 72.6511C67.4235 72.6569 67.9292 72.9196 68.3317 73.3924C69.0132 74.1933 69.3376 75.4991 69.1814 76.8014C68.9709 78.7911 67.7588 80.3539 66.4252 80.3539ZM66.9005 73.5174C65.9825 73.5174 65.1871 74.6936 64.994 76.3172C64.8258 77.8996 65.3759 79.288 66.2451 79.4681C67.0719 79.6574 68.1527 78.4974 68.3437 76.7016C68.4728 75.6288 68.2243 74.5834 67.697 73.9638C67.5255 73.7619 67.2477 73.5209 66.9005 73.5174Z" fill="white"/>
</g>
<mask id="mask22_375_2515" style="mask-type:luminance" maskUnits="userSpaceOnUse" x="-2" y="-2" width="75" height="162">
<path d="M-1.08521 -1.14697H72.1631V159H-1.08521V-1.14697Z" fill="white"/>
</mask>
<g mask="url(#mask22_375_2515)">
<path d="M66.8765 72.6604H66.8309C65.4561 72.6328 64.3233 71.0562 64.1996 68.9954C64.0249 66.9805 64.9277 65.2065 66.2558 64.969C67.7153 64.712 69.0456 66.3632 69.2431 68.6007C69.3245 69.9707 68.9577 71.2329 68.2622 71.9903C67.8618 72.4286 67.3822 72.6604 66.8765 72.6604ZM66.5564 65.8101C66.5044 65.8096 66.4524 65.8142 66.4012 65.8239C65.531 65.9776 64.9081 67.4016 65.0394 68.93C65.136 70.5227 65.9314 71.7768 66.8515 71.794L66.8765 72.2278V71.794C67.2129 71.794 67.4831 71.5783 67.6491 71.397C68.1786 70.8187 68.4683 69.7711 68.4032 68.6649C68.2481 66.9048 67.3225 65.8101 66.5564 65.8101Z" fill="white"/>
</g>
<mask id="mask23_375_2515" style="mask-type:luminance" maskUnits="userSpaceOnUse" x="-2" y="-2" width="75" height="162">
<path d="M-1.08521 -1.14697H72.1631V159H-1.08521V-1.14697Z" fill="white"/>
</mask>
<g mask="url(#mask23_375_2515)">
<path d="M65.8533 65.023C64.6108 65.023 63.4357 63.7654 62.9278 61.8939C62.4309 59.7883 62.9832 58.0006 64.2658 57.5336C64.4448 57.4659 64.638 57.4326 64.8354 57.4326C66.1126 57.4326 67.393 58.7809 67.8173 60.5697C68.1624 61.8434 68.0376 63.1458 67.4787 64.0396C67.1478 64.572 66.6779 64.9128 66.1582 64.9977C66.0573 65.0148 65.9554 65.0232 65.8533 65.023ZM64.8354 58.2989C64.7383 58.298 64.6418 58.3146 64.5501 58.3483C63.7135 58.6524 63.3684 60.0832 63.7438 61.6747C64.1573 63.2031 65.1154 64.2875 66.0215 64.1429C66.3839 64.0832 66.6269 63.801 66.7691 63.5738C67.1934 62.8933 67.2823 61.8251 67.0013 60.7889C66.6356 59.2444 65.5939 58.2989 64.8354 58.2989Z" fill="white"/>
</g>
<mask id="mask24_375_2515" style="mask-type:luminance" maskUnits="userSpaceOnUse" x="-2" y="-2" width="75" height="162">
<path d="M-1.08521 -1.14697H72.1631V159H-1.08521V-1.14697Z" fill="white"/>
</mask>
<g mask="url(#mask24_375_2515)">
<path d="M63.5518 57.6804C62.3897 57.6804 61.1548 56.6179 60.4799 55.0379C59.6487 53.1159 59.9363 51.1698 61.1494 50.5112C61.4066 50.3712 61.692 50.3 61.9969 50.3C63.1699 50.3 64.4188 51.358 65.1046 52.9346C65.6341 54.1796 65.7047 55.4957 65.2945 56.4538C65.0569 57.0115 64.6738 57.3982 64.1888 57.5703C63.9836 57.6435 63.7684 57.6807 63.5518 57.6804ZM61.9969 51.1664C61.8395 51.1643 61.684 51.2021 61.5433 51.2765C60.7534 51.7057 60.6231 53.2341 61.2514 54.6879C61.8667 56.1302 63.0473 57.0689 63.9099 56.7533C64.2387 56.6363 64.4242 56.3356 64.523 56.1038C64.8355 55.3741 64.7617 54.2943 64.3331 53.2846C63.7287 51.8939 62.7 51.1664 61.9969 51.1664Z" fill="white"/>
</g>
<mask id="mask25_375_2515" style="mask-type:luminance" maskUnits="userSpaceOnUse" x="-2" y="-2" width="75" height="162">
<path d="M-1.08521 -1.14697H72.1631V159H-1.08521V-1.14697Z" fill="white"/>
</mask>
<g mask="url(#mask25_375_2515)">
<path d="M60.1903 50.7842C59.0997 50.7842 57.8736 49.9064 57.0652 48.5455C56.0072 46.7039 56.0712 44.728 57.2128 43.9408C57.509 43.7354 57.8573 43.6333 58.2458 43.6333C59.3808 43.6333 60.6178 44.5088 61.3969 45.8662C62.0686 46.9953 62.3084 48.269 62.036 49.2707C61.8722 49.8708 61.538 50.3195 61.0692 50.5685C60.7968 50.7139 60.4954 50.7879 60.1903 50.7842ZM58.2458 44.4973C58.0475 44.4921 57.8521 44.5483 57.6837 44.6591C56.9295 45.1789 56.9773 46.689 57.7889 48.1003C58.58 49.4314 59.8951 50.2323 60.6796 49.8008C61.0041 49.6287 61.1549 49.2914 61.2233 49.0378C61.4316 48.2747 61.22 47.2306 60.6742 46.3103C60.06 45.2409 59.0628 44.4973 58.2458 44.4973Z" fill="white"/>
</g>
<mask id="mask26_375_2515" style="mask-type:luminance" maskUnits="userSpaceOnUse" x="-2" y="-2" width="75" height="162">
<path d="M-1.08521 -1.14697H72.1631V159H-1.08521V-1.14697Z" fill="white"/>
</mask>
<g mask="url(#mask26_375_2515)">
<path d="M56.0482 44.3286C54.987 44.3286 53.7978 43.5816 52.9427 42.3791C51.7209 40.6763 51.6156 38.6488 52.7051 37.7664C53.7945 36.8771 55.7922 37.5988 57.0205 39.3028C57.7855 40.3848 58.136 41.6333 57.958 42.6453C57.8528 43.2431 57.5717 43.7113 57.1442 44.0027C56.8168 44.2222 56.4358 44.3355 56.0482 44.3286ZM53.8954 38.2299C53.6562 38.2207 53.4211 38.2972 53.2281 38.4468C52.5217 39.0182 52.7029 40.5845 53.622 41.8662C54.5237 43.1364 55.9245 43.7905 56.6765 43.2798C56.9706 43.0802 57.0845 42.7406 57.1279 42.4916C57.2635 41.7182 56.963 40.6935 56.3412 39.8157C55.6478 38.8518 54.6875 38.2299 53.8954 38.2299Z" fill="white"/>
</g>
<mask id="mask27_375_2515" style="mask-type:luminance" maskUnits="userSpaceOnUse" x="-2" y="-2" width="75" height="162">
<path d="M-1.08521 -1.14697H72.1631V159H-1.08521V-1.14697Z" fill="white"/>
</mask>
<g mask="url(#mask27_375_2515)">
<path d="M51.4118 38.2484C50.3972 38.2484 49.2166 37.576 48.329 36.4962C46.9889 34.8072 46.7784 32.8278 47.8385 31.8858C48.176 31.584 48.6252 31.4233 49.1341 31.4233C50.1802 31.4233 51.3608 32.0935 52.218 33.1732C53.0351 34.1681 53.4626 35.3763 53.3584 36.3987C53.2955 37.0126 53.0448 37.5083 52.6358 37.8376C52.2816 38.1132 51.8514 38.2576 51.4118 38.2484ZM49.1341 32.2897C48.8282 32.2897 48.5775 32.3723 48.3909 32.541C47.7072 33.148 47.9709 34.6752 48.9779 35.9443C49.9588 37.1353 51.4215 37.716 52.116 37.1548C52.4014 36.9254 52.4925 36.5674 52.5196 36.308C52.5999 35.5266 52.2354 34.5387 51.5691 33.7251C50.8746 32.8508 49.9208 32.2897 49.1341 32.2897Z" fill="white"/>
</g>
<mask id="mask28_375_2515" style="mask-type:luminance" maskUnits="userSpaceOnUse" x="-2" y="-2" width="75" height="162">
<path d="M-1.08521 -1.14697H72.1631V159H-1.08521V-1.14697Z" fill="white"/>
</mask>
<g mask="url(#mask28_375_2515)">
<path d="M46.4289 32.4342C45.4295 32.4342 44.2978 31.8409 43.4015 30.8484C42.5388 29.8845 42.0516 28.7084 42.0983 27.6952C42.1254 27.0928 42.3414 26.5856 42.7233 26.2345C43.7379 25.2947 45.7485 25.7985 47.1179 27.3257C47.998 28.301 48.4873 29.4967 48.4244 30.5259C48.3875 31.1272 48.1618 31.6218 47.7712 31.9591C47.4174 32.2678 46.953 32.4342 46.4289 32.4342ZM44.0818 26.6017C43.7531 26.6017 43.485 26.6946 43.2865 26.8794C43.0217 27.1238 42.9523 27.4795 42.9403 27.7354C42.9045 28.5099 43.319 29.4772 44.02 30.2609C45.0595 31.4118 46.5439 31.8983 47.2264 31.297C47.4413 31.1134 47.5607 30.8358 47.5834 30.472C47.6301 29.6872 47.2156 28.7061 46.4994 27.9132C45.7724 27.1043 44.8457 26.6017 44.0818 26.6017Z" fill="white"/>
</g>
<mask id="mask29_375_2515" style="mask-type:luminance" maskUnits="userSpaceOnUse" x="-2" y="-2" width="75" height="162">
<path d="M-1.08521 -1.14697H72.1631V159H-1.08521V-1.14697Z" fill="white"/>
</mask>
<g mask="url(#mask29_375_2515)">
<path d="M41.3235 26.8025C40.3057 26.8025 39.1295 26.1577 38.2549 25.1181C37.414 24.1233 36.9647 22.9207 37.0526 21.8995C37.1058 21.2902 37.3467 20.7922 37.7492 20.4606C38.7942 19.5897 40.7702 20.1714 42.0744 21.7159C43.4395 23.3315 43.6977 25.3487 42.6593 26.308C42.3153 26.6304 41.852 26.8025 41.3235 26.8025ZM39.0123 20.8932C38.7182 20.8932 38.4708 20.9724 38.2799 21.133C37.9999 21.3636 37.9153 21.7194 37.8925 21.9775C37.8252 22.7566 38.2082 23.7412 38.8919 24.5501C39.9053 25.7561 41.4331 26.2828 42.094 25.6654C42.7646 25.0458 42.4629 23.4979 41.4375 22.2816C40.7137 21.4256 39.7849 20.8932 39.0123 20.8932Z" fill="white"/>
</g>
<mask id="mask30_375_2515" style="mask-type:luminance" maskUnits="userSpaceOnUse" x="-2" y="-2" width="75" height="162">
<path d="M-1.08521 -1.14697H72.1631V159H-1.08521V-1.14697Z" fill="white"/>
</mask>
<g mask="url(#mask30_375_2515)">
<path d="M36.4657 20.9506C35.399 20.9506 34.2011 20.2173 33.3395 19.0366C32.5626 17.958 32.2056 16.7061 32.3857 15.6838C32.4921 15.0825 32.7764 14.612 33.2115 14.3217C34.3378 13.5679 36.2053 14.2839 37.3934 15.9316C38.6435 17.6482 38.7672 19.6252 37.681 20.5294C37.3331 20.8121 36.9043 20.9607 36.4657 20.9506ZM34.2944 14.8691C34.0557 14.8691 33.8463 14.9299 33.6716 15.0469C33.3742 15.2454 33.2592 15.5874 33.2147 15.8387C33.078 16.6178 33.3851 17.6459 34.0155 18.5202C34.9476 19.7974 36.4559 20.4422 37.1482 19.8593C37.8535 19.2718 37.6593 17.7411 36.7163 16.4468C36.0251 15.4887 35.0735 14.8691 34.2944 14.8691Z" fill="white"/>
</g>
<mask id="mask31_375_2515" style="mask-type:luminance" maskUnits="userSpaceOnUse" x="-2" y="-2" width="75" height="162">
<path d="M-1.08521 -1.14697H72.1631V159H-1.08521V-1.14697Z" fill="white"/>
</mask>
<g mask="url(#mask31_375_2515)">
<path d="M32.1296 14.681C30.988 14.681 29.7206 13.7264 28.9763 12.3035C28.3426 11.1136 28.1766 9.75045 28.5455 8.74987C28.7603 8.16811 29.1488 7.747 29.6371 7.5657C30.8806 7.09639 32.4703 8.04992 33.4252 9.82961C34.3844 11.6724 34.2618 13.6265 33.1409 14.3804C32.8388 14.583 32.4872 14.6875 32.1296 14.681ZM30.3207 8.30924C30.1829 8.30924 30.0505 8.33219 29.9246 8.38039C29.598 8.50087 29.4233 8.81528 29.3344 9.05624C29.0555 9.81585 29.2052 10.9289 29.7174 11.8904C30.4108 13.2134 31.4525 13.817 32.1296 13.817C32.3229 13.8214 32.5132 13.7664 32.6775 13.6586C33.4197 13.1584 33.4208 11.6586 32.684 10.2427C32.0655 9.08836 31.1139 8.30924 30.3207 8.30924Z" fill="white"/>
</g>
<mask id="mask32_375_2515" style="mask-type:luminance" maskUnits="userSpaceOnUse" x="-2" y="-2" width="75" height="162">
<path d="M-1.08521 -1.14697H72.1631V159H-1.08521V-1.14697Z" fill="white"/>
</mask>
<g mask="url(#mask32_375_2515)">
<path d="M28.9666 7.71718C27.7686 7.71718 26.3699 6.39073 26.1019 4.16927C26.0536 3.5847 26.0847 2.99583 26.1941 2.42056C26.3504 1.85372 26.5576 1.37064 26.804 0.996572C27.4311 0.173852 28.2254 -0.154322 28.9611 0.0671355C29.559 0.24958 30.0842 0.731518 30.477 1.46359C30.668 1.7757 30.8134 2.11878 30.8959 2.46416C31.0456 2.8302 31.1009 3.25704 31.1292 3.58407C31.2898 5.10099 30.974 7.07002 29.5503 7.60817C29.3637 7.68216 29.1658 7.71913 28.9666 7.71718ZM28.4956 0.864621C28.1603 0.864621 27.8012 1.09181 27.4865 1.50489C27.2746 1.85081 27.1146 2.22937 27.0123 2.6271C26.9252 3.10628 26.9011 3.59591 26.9407 4.08207C27.1707 5.99831 28.4501 7.09985 29.2541 6.79922C30.1602 6.45498 30.4249 4.9369 30.2915 3.67127C30.2546 3.26163 30.1971 2.9851 30.0961 2.73151C30.0169 2.41711 29.9073 2.1578 29.7511 1.90421C29.5417 1.51293 29.2042 1.04476 28.7213 0.897889C28.6481 0.875027 28.572 0.863821 28.4956 0.864621Z" fill="white"/>
</g>
<mask id="mask33_375_2515" style="mask-type:luminance" maskUnits="userSpaceOnUse" x="-2" y="-2" width="75" height="162">
<path d="M-1.08521 -1.14697H72.1631V159H-1.08521V-1.14697Z" fill="white"/>
</mask>
<g mask="url(#mask33_375_2515)">
<path d="M46.4539 147.269L45.4524 129.277L36.1086 117.663H35.9437L26.5988 129.277L25.5984 147.269L35.9437 157.853H36.1086L46.4539 147.269Z" fill="white"/>
</g>
<mask id="mask34_375_2515" style="mask-type:luminance" maskUnits="userSpaceOnUse" x="-2" y="-2" width="75" height="162">
<path d="M-1.08521 -1.14697H72.1631V159H-1.08521V-1.14697Z" fill="white"/>
</mask>
<g mask="url(#mask34_375_2515)">
<path d="M22.9485 132.476V119.955L16.4716 112.726L10.165 119.955V131.538L16.4716 138.353L22.9485 132.476Z" fill="white"/>
</g>
<mask id="mask35_375_2515" style="mask-type:luminance" maskUnits="userSpaceOnUse" x="-2" y="-2" width="75" height="162">
<path d="M-1.08521 -1.14697H72.1631V159H-1.08521V-1.14697Z" fill="white"/>
</mask>
<g mask="url(#mask35_375_2515)">
<path d="M61.2383 132.476V119.955L54.7614 112.726L48.4548 119.955V131.538L54.7614 138.353L61.2383 132.476Z" fill="white"/>
</g>
<mask id="mask36_375_2515" style="mask-type:luminance" maskUnits="userSpaceOnUse" x="-2" y="-2" width="75" height="162">
<path d="M-1.08521 -1.14697H72.1631V159H-1.08521V-1.14697Z" fill="white"/>
</mask>
<g mask="url(#mask36_375_2515)">
<path d="M8.90538 116.736V108.013L4.39355 102.977L0 108.013V116.084L4.39355 120.83L8.90538 116.736Z" fill="white"/>
</g>
<mask id="mask37_375_2515" style="mask-type:luminance" maskUnits="userSpaceOnUse" x="-2" y="-2" width="75" height="162">
<path d="M-1.08521 -1.14697H72.1631V159H-1.08521V-1.14697Z" fill="white"/>
</mask>
<g mask="url(#mask37_375_2515)">
<path d="M71.078 116.736V108.012L66.5662 102.977L62.1726 108.012V116.082L66.5662 120.83L71.078 116.736Z" fill="white"/>
</g>
</g>
</svg>
